<?xml version="1.0" encoding="UTF-8"?>
<svg contentScriptType="text/ecmascript" contentStyleType="text/css" version="1.0" viewBox="0 0 150 60" xmlns="http://www.w3.org/2000/svg" xmlns:xlink="http://www.w3.org/1999/xlink" zoomAndPan="magnify">
<defs>
<g id="q">
<path d="m9.625-20.594c-1.5234 0.5-2.6992 1.3242-3.5312 2.4688-0.82422 1.1484-1.2344 2.5703-1.2344 4.2656 0 0.76172 0.066406 1.2812 0.20312 1.5625 0.14453 0.28125 0.21875 0.45312 0.21875 0.51562-2.1484 0-3.2188-0.91016-3.2188-2.7344 0-1.2383 0.47266-2.4844 1.4219-3.7344 0.95703-1.25 2.1797-2.2656 3.6719-3.0469 1.4883-0.78906 2.9727-1.1875 4.4531-1.1875 0.73828 0 1.4922 0.14062 2.2656 0.42188l-0.6875 15.797 6.6094-15.797h4.3125l-3.1562 22.062h-4.3125l1.9219-13.469-5.6406 13.469h-4.1094l0.60938-13.516-5.0156 13.516h-2.3906z"/>
</g>
<g id="p">
<path d="m4.6719 7.5c-0.96094 0-1.7617-0.25-2.4062-0.75-0.63672-0.5-0.95312-1.2188-0.95312-2.1562 0-1.1484 0.45703-2.0625 1.375-2.75 0.92578-0.6875 2.0977-1.2617 3.5156-1.7188l0.35938-1.625c-0.57422 0.63672-1.1641 1.0781-1.7656 1.3281-0.60547 0.23828-1.2148 0.35938-1.8281 0.35938-0.96094 0-1.7344-0.30078-2.3281-0.90625-0.58594-0.60156-0.875-1.5039-0.875-2.7031 0-0.5 0.078125-1.1484 0.23438-1.9531l2.0312-9.625h4.3281l-2.1562 10.203c-0.0625 0.24219-0.09375 0.49219-0.09375 0.75 0 0.875 0.29688 1.3125 0.89062 1.3125 0.51953 0 0.97656-0.22266 1.375-0.67188 0.40625-0.44531 0.72656-1.0391 0.96875-1.7812l2.0938-9.8125h4.3281l-2.9688 13.922c0.95703-0.32031 1.7227-0.80078 2.2969-1.4375 0.58203-0.64453 1.0781-1.5977 1.4844-2.8594h1.25c-0.54297 1.7812-1.2734 3.0898-2.1875 3.9219-0.91797 0.83594-1.9531 1.3984-3.1094 1.6875l-0.45312 2.1719c-0.40625 1.9375-1.1016 3.2695-2.0781 4-0.98047 0.72656-2.0898 1.0938-3.3281 1.0938zm-0.6875-2.3438c0.34375 0 0.67188-0.23047 0.98438-0.6875 0.32031-0.46094 0.57812-1.1211 0.76562-1.9844l0.17188-0.85938c-1.9609 0.71875-2.9375 1.5664-2.9375 2.5469 0 0.25781 0.085938 0.48828 0.26562 0.6875 0.1875 0.19531 0.4375 0.29688 0.75 0.29688z"/>
</g>
<g id="o">
<path d="m3.5938 0.1875c-1.1367 0-2.0859-0.39062-2.8438-1.1719-0.75781-0.78125-1.1406-2-1.1406-3.6562 0-1.4766 0.29297-3.0312 0.875-4.6562 0.59375-1.6328 1.4727-3.0156 2.6406-4.1406 1.1758-1.1328 2.5703-1.7031 4.1875-1.7031 0.82031 0 1.4297 0.14062 1.8281 0.42188 0.40625 0.28125 0.60938 0.65234 0.60938 1.1094v0.20312l0.32812-1.5938h4.3125l-2.1562 10.203c-0.085937 0.30469-0.125 0.62109-0.125 0.95312 0 0.86719 0.41016 1.2969 1.2344 1.2969 0.5625 0 1.0469-0.25781 1.4531-0.78125 0.40625-0.51953 0.72656-1.2031 0.96875-2.0469h1.2656c-0.74219 2.168-1.6562 3.6367-2.75 4.4062-1.0859 0.77344-2.1797 1.1562-3.2812 1.1562-0.83594 0-1.5078-0.23438-2.0156-0.70312-0.51172-0.47656-0.82031-1.1641-0.92188-2.0625-0.57422 0.82422-1.2188 1.4922-1.9375 2-0.71094 0.51172-1.5547 0.76562-2.5312 0.76562zm1.9531-2.9219c0.5 0 0.99219-0.23438 1.4844-0.70312 0.48828-0.46875 0.82031-1.1133 1-1.9375l1.4375-6.7656c0-0.25781-0.10156-0.51562-0.29688-0.76562-0.19922-0.25-0.50781-0.375-0.92188-0.375-0.80469 0-1.5273 0.46484-2.1719 1.3906-0.63672 0.92969-1.1367 2.0469-1.5 3.3594-0.35547 1.3125-0.53125 2.4688-0.53125 3.4688s0.14453 1.6406 0.4375 1.9219c0.28906 0.27344 0.64453 0.40625 1.0625 0.40625z"/>
</g>
<g id="f">
<path d="m2.9688 0.1875c-0.96094 0-1.7344-0.30078-2.3281-0.90625-0.58594-0.60156-0.875-1.5039-0.875-2.7031 0-0.5 0.078125-1.1484 0.23438-1.9531l3.2031-15.016 4.4375-0.59375-3.4375 16.188c-0.085937 0.30469-0.125 0.62109-0.125 0.95312 0 0.40625 0.09375 0.69531 0.28125 0.85938 0.1875 0.16797 0.50391 0.25 0.95312 0.25 0.57031 0 1.1094-0.24219 1.6094-0.73438 0.5-0.48828 0.85938-1.125 1.0781-1.9062h1.2656c-0.74219 2.168-1.6953 3.6367-2.8594 4.4062-1.1562 0.77344-2.3047 1.1562-3.4375 1.1562z"/>
</g>
<g id="n">
<path d="m4.2812 0.1875c-1.4805 0-2.6328-0.38281-3.4531-1.1562-0.8125-0.76953-1.2188-1.9766-1.2188-3.625 0-1.375 0.27344-2.8906 0.8125-4.5469 0.53906-1.6641 1.4219-3.1016 2.6406-4.3125 1.2188-1.207 2.7656-1.8125 4.6406-1.8125 2.1953 0 3.2969 0.96094 3.2969 2.875 0 1.125-0.32422 2.1562-0.96875 3.0938-0.63672 0.9375-1.4844 1.6953-2.5469 2.2656-1.0547 0.57422-2.1797 0.89844-3.375 0.96875-0.042969 0.60547-0.0625 1.0078-0.0625 1.2031 0 0.98047 0.16406 1.6484 0.5 2 0.34375 0.34375 0.89453 0.51562 1.6562 0.51562 1.082 0 2.0078-0.25 2.7812-0.75 0.76953-0.5 1.6133-1.2578 2.5312-2.2812h1.0156c-2.2188 3.7109-4.9688 5.5625-8.25 5.5625zm0.0625-7.6875c0.73828-0.039062 1.4414-0.30078 2.1094-0.78125 0.67578-0.47656 1.2188-1.0859 1.625-1.8281 0.41406-0.73828 0.625-1.5156 0.625-2.3281 0-0.82031-0.25-1.2344-0.75-1.2344-0.73047 0-1.4375 0.63281-2.125 1.8906-0.6875 1.2617-1.1836 2.6875-1.4844 4.2812z"/>
</g>
<g id="m">
<path d="m2.9688 0.1875c-0.96094 0-1.7344-0.30078-2.3281-0.90625-0.58594-0.60156-0.875-1.5039-0.875-2.7031 0-0.5 0.078125-1.1484 0.23438-1.9531l1.7969-8.4219h-0.98438l0.23438-1.2031h0.98438l0.90625-4.125 4.4375-0.60938-1.0156 4.7344h1.7969l-0.23438 1.2031h-1.8125l-1.9062 9c-0.085937 0.30469-0.125 0.62109-0.125 0.95312 0 0.40625 0.09375 0.69531 0.28125 0.85938 0.1875 0.16797 0.50391 0.25 0.95312 0.25 0.57031 0 1.1094-0.24219 1.6094-0.73438 0.5-0.48828 0.85938-1.125 1.0781-1.9062h1.2656c-0.74219 2.168-1.6953 3.6367-2.8594 4.4062-1.1562 0.77344-2.3047 1.1562-3.4375 1.1562z"/>
</g>
<g id="a">
<path d="m2.9805 0.066406c1.4258 0 2.5703-1.1523 2.5703-2.5703 0-1.418-1.1445-2.5703-2.5703-2.5703-1.4219 0-2.5703 1.1523-2.5703 2.5703 0 1.418 1.1484 2.5703 2.5703 2.5703zm0-0.53516c-1.1289 0-2.0391-0.89844-2.0391-2.0352 0-1.1328 0.91016-2.0352 2.0391-2.0352 1.1328 0 2.0352 0.90234 2.0352 2.0352 0 1.1367-0.90234 2.0352-2.0352 2.0352z"/>
</g>
<g id="l">
<path d="m3.6289 0h0.58594l-1.8125-5.0078h-0.58984l-1.8125 5.0078h0.58594l0.40625-1.168h2.2305zm-2.4609-1.6758 0.94141-2.6953 0.9375 2.6953z"/>
</g>
<g id="e">
<path d="m2.4023-5.0078h-1.793v5.0078h0.53516v-2.2266h1.2578c0.77734 0 1.3945-0.60938 1.3945-1.3867 0-0.76953-0.61719-1.3945-1.3945-1.3945zm-0.050782 2.2695h-1.207v-1.75h1.207c0.50391 0 0.91016 0.34766 0.91016 0.88281 0 0.55078-0.40625 0.86719-0.91016 0.86719z"/>
</g>
<g id="d">
<path d="m0.60938 0h1.3672c1.3789 0 2.5039-1.1172 2.5039-2.5039 0-1.3867-1.125-2.5039-2.5039-2.5039h-1.3672zm0.52734-0.53516v-3.9375h0.83203c1.1094 0 1.9766 0.84375 1.9766 1.9688 0 1.1289-0.86719 1.9688-1.9766 1.9688z"/>
</g>
<g id="j">
<path d="m1.8711 0.066406c0.84766 0 1.543-0.50781 1.543-1.3867 0-1.6992-2.4375-1.2852-2.4375-2.4766 0-0.5 0.41016-0.74219 0.875-0.74219 0.38672 0 0.70313 0.15625 0.90234 0.44141l0.41797-0.35156c-0.27734-0.34766-0.76172-0.625-1.3359-0.625-0.76953 0-1.3945 0.5-1.3945 1.3203 0 1.6094 2.4375 1.207 2.4375 2.4531 0 0.53125-0.44141 0.83203-1 0.83203-0.57031 0-0.97656-0.30859-1.1523-0.76562l-0.48437 0.28125c0.25781 0.62109 0.88281 1.0195 1.6289 1.0195z"/>
</g>
<g id="c">
<path d="m3.3867-4.4883v-0.51953h-2.7344v5.0078h2.7344v-0.51562h-2.2031v-1.7305h1.9219v-0.51562h-1.9219v-1.7266z"/>
</g>
<g id="i">
<path d="m2.4609 0.066406c1.0938 0 1.8867-0.72656 1.8867-1.7109v-3.3633h-0.53516v3.2812c0 0.72656-0.57422 1.2578-1.3516 1.2578-0.77344 0-1.3438-0.53125-1.3438-1.2578v-3.2812h-0.53125v3.3633c0 0.98438 0.78906 1.7109 1.875 1.7109z"/>
</g>
<g id="b">
<path d="m0.65234 0h0.53125v-5.0078h-0.53125z"/>
</g>
<g id="h">
<path d="m4.207-5.0078v4.1133l-3.0977-4.1133h-0.5v5.0078h0.53516v-4.1133l3.0859 4.1133h0.5v-5.0078z"/>
</g>
<g id="g">
<path d="m3.9062-5.0078v2.2383h-2.7617v-2.2383h-0.53516v5.0078h0.53516v-2.2383h2.7617v2.2383h0.53516v-5.0078z"/>
</g>
<g id="k">
<path d="m2.6367-2.2852c0.66016-0.09375 1.1602-0.64453 1.1602-1.3203 0-0.78516-0.625-1.4023-1.3945-1.4023h-1.793v5.0078h0.53516v-2.2617h0.94141l1.418 2.2617h0.60938zm-1.4922-0.48438v-1.7031h1.2266c0.5 0 0.89062 0.35156 0.89062 0.85156 0 0.50781-0.38281 0.85156-0.89062 0.85156z"/>
</g>
<clipPath id="z">
<path d="m66 13h24v27h-24z"/>
</clipPath>
<clipPath id="y">
<path d="m89.656 39.664-38.25 0.24219-0.16797-26.25 38.25-0.24219z"/>
</clipPath>
<clipPath id="x">
<path d="m89.656 39.664-38.25 0.24609-0.16797-26.25 38.25-0.24609z"/>
</clipPath>
<clipPath id="w">
<path d="m51 13h24v27h-24z"/>
</clipPath>
<clipPath id="v">
<path d="m89.656 39.664-38.25 0.24219-0.16797-26.25 38.25-0.24219z"/>
</clipPath>
<clipPath id="u">
<path d="m89.656 39.664-38.25 0.24609-0.16797-26.25 38.25-0.24609z"/>
</clipPath>
<clipPath id="t">
<path d="m66 13h24v27h-24z"/>
</clipPath>
<clipPath id="s">
<path d="m89.656 39.664-38.25 0.24219-0.16797-26.25 38.25-0.24219z"/>
</clipPath>
<clipPath id="r">
<path d="m89.656 39.664-38.25 0.24609-0.16797-26.25 38.25-0.24609z"/>
</clipPath>
</defs>
<g clip-path="url(#z)">
<g clip-path="url(#y)">
<g clip-path="url(#x)">
<path d="m67.582 39.805c-0.52734 0.003906-0.96484-0.42578-0.96875-0.95313l-0.15625-24.328c-0.003906-0.53125 0.42969-0.96484 0.96094-0.96875l6.0938-0.039063c0.53125-0.003906 0.96875 0.42578 0.96875 0.95703l0.054687 8.3438c0.003906 0.52734 0.22266 0.58203 0.48438 0.125l4.9297-8.6328c0.26172-0.46094 0.91016-0.83984 1.4414-0.84375l7.3359-0.046875c0.53125 0 0.75 0.37109 0.48828 0.83203l-14.094 24.676c-0.26172 0.45703-0.47656 0.83594-0.47656 0.83594s-0.43359 0-0.96484 0.003906z" fill="#d9d9d9"/>
</g>
</g>
</g>
<g clip-path="url(#w)">
<g clip-path="url(#v)">
<g clip-path="url(#u)">
<path d="m52.383 39.902c-0.53125 0.003906-0.96875-0.42578-0.97266-0.95312l-0.15234-24.332c-0.003906-0.52734 0.42578-0.96094 0.95703-0.96484l6.0938-0.039063c0.53125-0.003906 0.96875 0.42578 0.97266 0.95312l0.054688 8.3477c0 0.52734 0.21875 0.58203 0.48047 0.125l4.9336-8.6328c0.26172-0.46094 0.90625-0.83984 1.4375-0.84375l7.3359-0.046875c0.53125-0.003906 0.75 0.37109 0.48828 0.82812l-14.094 24.68c-0.26172 0.45703-0.47656 0.83203-0.47656 0.83203 0 0.003906-0.43359 0.003906-0.96484 0.007812z" fill="#fff"/>
</g>
</g>
</g>
<g clip-path="url(#t)">
<g clip-path="url(#s)">
<g clip-path="url(#r)">
<path d="m75.02 22.941 4.9297-8.6328c0.26172-0.46094 0.91016-0.83984 1.4414-0.84375l7.3359-0.046875c0.53125-0.003907 0.75 0.37109 0.48828 0.82812l-14.094 24.68c-0.26172 0.45703-0.47656 0.83594-0.47656 0.83594s-0.43359 0-0.96484 0.003906l-6.0977 0.039063c-0.52734 0.003906-0.96484-0.42578-0.96875-0.95313l-0.054687-8.3047 7.9375-13.895 0.039062 6.1602c0.003906 0.53125 0.21875 0.58594 0.48438 0.12891z" fill="#fff"/>
</g>
</g>
</g>
<g fill="#fff">
<use x="0.468492" y="40.639053" xlink:href="#q" xlink:actuate="onLoad" xlink:show="embed" xlink:type="simple" xmlns:xlink="http://www.w3.org/1999/xlink"/>
</g>
<g fill="#fff">
<use x="27.057517" y="40.639053" xlink:href="#p" xlink:actuate="onLoad" xlink:show="embed" xlink:type="simple" xmlns:xlink="http://www.w3.org/1999/xlink"/>
</g>
<g fill="#fff">
<use x="44.623316" y="40.639053" xlink:actuate="onLoad" xlink:href="#glyph-0-3" xlink:show="embed" xlink:type="simple" xmlns:xlink="http://www.w3.org/1999/xlink"/>
</g>
<g fill="#fff">
<use x="54.126701" y="40.639053" xlink:actuate="onLoad" xlink:href="#glyph-0-3" xlink:show="embed" xlink:type="simple" xmlns:xlink="http://www.w3.org/1999/xlink"/>
</g>
<g fill="#fff">
<use x="63.630087" y="40.639053" xlink:actuate="onLoad" xlink:href="#glyph-0-3" xlink:show="embed" xlink:type="simple" xmlns:xlink="http://www.w3.org/1999/xlink"/>
</g>
<g fill="#fff">
<use x="73.133471" y="40.639053" xlink:actuate="onLoad" xlink:href="#glyph-0-3" xlink:show="embed" xlink:type="simple" xmlns:xlink="http://www.w3.org/1999/xlink"/>
</g>
<g fill="#fff">
<use x="82.630179" y="40.639053" xlink:href="#o" xlink:actuate="onLoad" xlink:show="embed" xlink:type="simple" xmlns:xlink="http://www.w3.org/1999/xlink"/>
</g>
<g fill="#fff">
<use x="101.395777" y="40.639053" xlink:href="#f" xlink:actuate="onLoad" xlink:show="embed" xlink:type="simple" xmlns:xlink="http://www.w3.org/1999/xlink"/>
</g>
<g fill="#fff">
<use x="112.397903" y="40.639053" xlink:href="#f" xlink:actuate="onLoad" xlink:show="embed" xlink:type="simple" xmlns:xlink="http://www.w3.org/1999/xlink"/>
</g>
<g fill="#fff">
<use x="123.400029" y="40.639053" xlink:href="#n" xlink:actuate="onLoad" xlink:show="embed" xlink:type="simple" xmlns:xlink="http://www.w3.org/1999/xlink"/>
</g>
<g fill="#fff">
<use x="137.909203" y="40.639053" xlink:href="#m" xlink:actuate="onLoad" xlink:show="embed" xlink:type="simple" xmlns:xlink="http://www.w3.org/1999/xlink"/>
</g>
<g fill="#d9d9d9">
<use x="48.069213" y="48.860303" xlink:href="#a" xlink:actuate="onLoad" xlink:show="embed" xlink:type="simple" xmlns:xlink="http://www.w3.org/1999/xlink"/>
</g>
<g fill="#d9d9d9">
<use x="54.836268" y="48.860303" xlink:actuate="onLoad" xlink:href="#glyph-2-0" xlink:show="embed" xlink:type="simple" xmlns:xlink="http://www.w3.org/1999/xlink"/>
</g>
<g fill="#d9d9d9">
<use x="57.648405" y="48.860303" xlink:href="#l" xlink:actuate="onLoad" xlink:show="embed" xlink:type="simple" xmlns:xlink="http://www.w3.org/1999/xlink"/>
</g>
<g fill="#d9d9d9">
<use x="62.663283" y="48.860303" xlink:href="#e" xlink:actuate="onLoad" xlink:show="embed" xlink:type="simple" xmlns:xlink="http://www.w3.org/1999/xlink"/>
</g>
<g fill="#d9d9d9">
<use x="67.402817" y="48.860303" xlink:href="#e" xlink:actuate="onLoad" xlink:show="embed" xlink:type="simple" xmlns:xlink="http://www.w3.org/1999/xlink"/>
</g>
<g fill="#d9d9d9">
<use x="72.14235" y="48.860303" xlink:actuate="onLoad" xlink:href="#glyph-2-0" xlink:show="embed" xlink:type="simple" xmlns:xlink="http://www.w3.org/1999/xlink"/>
</g>
<g fill="#d9d9d9">
<use x="74.954486" y="48.860303" xlink:href="#d" xlink:actuate="onLoad" xlink:show="embed" xlink:type="simple" xmlns:xlink="http://www.w3.org/1999/xlink"/>
</g>
<g fill="#d9d9d9">
<use x="80.6452" y="48.860303" xlink:href="#a" xlink:actuate="onLoad" xlink:show="embed" xlink:type="simple" xmlns:xlink="http://www.w3.org/1999/xlink"/>
</g>
<g fill="#d9d9d9">
<use x="87.412254" y="48.860303" xlink:actuate="onLoad" xlink:href="#glyph-2-0" xlink:show="embed" xlink:type="simple" xmlns:xlink="http://www.w3.org/1999/xlink"/>
</g>
<g fill="#d9d9d9">
<use x="90.22439" y="48.860303" xlink:href="#j" xlink:actuate="onLoad" xlink:show="embed" xlink:type="simple" xmlns:xlink="http://www.w3.org/1999/xlink"/>
</g>
<g fill="#d9d9d9">
<use x="94.680243" y="48.860303" xlink:href="#c" xlink:actuate="onLoad" xlink:show="embed" xlink:type="simple" xmlns:xlink="http://www.w3.org/1999/xlink"/>
</g>
<g fill="#d9d9d9">
<use x="99.369714" y="48.860303" xlink:href="#i" xlink:actuate="onLoad" xlink:show="embed" xlink:type="simple" xmlns:xlink="http://www.w3.org/1999/xlink"/>
</g>
<g fill="#d9d9d9">
<use x="105.102153" y="48.860303" xlink:actuate="onLoad" xlink:href="#glyph-2-0" xlink:show="embed" xlink:type="simple" xmlns:xlink="http://www.w3.org/1999/xlink"/>
</g>
<g fill="#d9d9d9">
<use x="107.914289" y="48.860303" xlink:href="#d" xlink:actuate="onLoad" xlink:show="embed" xlink:type="simple" xmlns:xlink="http://www.w3.org/1999/xlink"/>
</g>
<g fill="#d9d9d9">
<use x="113.605007" y="48.860303" xlink:href="#b" xlink:actuate="onLoad" xlink:show="embed" xlink:type="simple" xmlns:xlink="http://www.w3.org/1999/xlink"/>
</g>
<g fill="#d9d9d9">
<use x="116.23359" y="48.860303" xlink:href="#h" xlink:actuate="onLoad" xlink:show="embed" xlink:type="simple" xmlns:xlink="http://www.w3.org/1999/xlink"/>
</g>
<g fill="#d9d9d9">
<use x="122.374871" y="48.860303" xlink:href="#g" xlink:actuate="onLoad" xlink:show="embed" xlink:type="simple" xmlns:xlink="http://www.w3.org/1999/xlink"/>
</g>
<g fill="#d9d9d9">
<use x="128.22412" y="48.860303" xlink:href="#c" xlink:actuate="onLoad" xlink:show="embed" xlink:type="simple" xmlns:xlink="http://www.w3.org/1999/xlink"/>
</g>
<g fill="#d9d9d9">
<use x="132.913595" y="48.860303" xlink:href="#b" xlink:actuate="onLoad" xlink:show="embed" xlink:type="simple" xmlns:xlink="http://www.w3.org/1999/xlink"/>
</g>
<g fill="#d9d9d9">
<use x="135.542178" y="48.860303" xlink:href="#k" xlink:actuate="onLoad" xlink:show="embed" xlink:type="simple" xmlns:xlink="http://www.w3.org/1999/xlink"/>
</g>
<g fill="#d9d9d9">
<use x="140.532031" y="48.860303" xlink:href="#a" xlink:actuate="onLoad" xlink:show="embed" xlink:type="simple" xmlns:xlink="http://www.w3.org/1999/xlink"/>
</g>
</svg>